<svg xmlns="http://www.w3.org/2000/svg" width="400" viewBox="0 0 300 300" height="400" version="1.0">
  <style>
    path { fill: #051b14; }
    @media (prefers-color-scheme: dark) {
      path { fill: #ffffff; }
    }
  </style>
  <path d="M 284.355469 106.789062 C 291.296875 107.253906 291.945312 106.738281 292.027344 107.921875 C 292.03125 107.964844 292.632812 107.953125 292.539062 149.894531 C 292.527344 155.253906 293.011719 155.945312 288.464844 158.683594 C 288.054688 158.929688 267.644531 170.285156 266.972656 170.300781 C 262.867188 170.398438 219.269531 171.433594 215.65625 170.175781 C 212.707031 169.148438 213.597656 167.527344 210.472656 166.984375 C 207.734375 166.511719 164.789062 163.128906 137.910156 138.339844 C 135.679688 136.285156 139.289062 142.796875 146.367188 148.167969 C 150.316406 151.164062 150.132812 151.410156 160.078125 156.609375 C 162.457031 157.855469 154.023438 164.679688 155.09375 165.277344 C 161.277344 168.734375 162.386719 166.507812 179.546875 177.964844 C 200.808594 192.160156 219.652344 226.695312 219.898438 226.6875 C 222.777344 226.59375 242.5 217.378906 241.679688 228.113281 C 241.210938 234.289062 220.441406 250.832031 219.550781 251.378906 C 216.28125 253.382812 214.492188 258.675781 209.6875 253.867188 C 207.25 251.429688 205.585938 246.054688 183.335938 226.054688 C 139.203125 186.386719 123.175781 199.285156 104.761719 180.851562 C 93.109375 169.1875 89.1875 149.78125 101.316406 140.445312 C 103.070312 139.09375 102.777344 138.808594 122.171875 122.257812 C 149.863281 98.625 149.796875 98.578125 152.5 96.933594 C 156.71875 94.371094 153.089844 93.511719 150.527344 89.238281 C 149.539062 87.589844 148.75 86.277344 126.738281 86.003906 C 117.230469 85.886719 102.847656 83.964844 111.1875 82.328125 C 117.390625 81.105469 147.25 79.644531 147.335938 79.5 C 147.96875 78.429688 141.367188 54.628906 167.664062 42.929688 C 169.644531 42.046875 183.371094 38.695312 193.484375 43.089844 C 205.367188 48.253906 208.164062 61.222656 209.023438 61.433594 C 225.339844 65.398438 244.125 64.914062 230.585938 77.1875 C 224.414062 82.78125 212.164062 81.683594 212.578125 83.921875 C 214.460938 94.066406 213.332031 98.078125 206.449219 109.496094 C 202.234375 116.496094 190.675781 115.457031 189.992188 116.578125 C 184.1875 126.097656 184.441406 126.589844 185.152344 127.191406 C 187.710938 129.367188 211.664062 139.488281 211.699219 135.761719 C 211.820312 124.367188 206.910156 120.339844 220.355469 114.535156 C 241.371094 105.460938 242.792969 105.667969 244.847656 105.960938 C 249.550781 106.640625 281.195312 106.777344 284.355469 106.789062 L 245.121094 148.761719 C 245.148438 146.699219 227.808594 148.859375 228.019531 145.179688 C 228.25 141.0625 230.238281 137.703125 227.300781 139.832031 C 219.539062 145.449219 219.34375 146.746094 209.988281 144.875 C 197.253906 142.324219 187.636719 137.234375 186.605469 138.679688 C 177.988281 150.71875 177.9375 151.628906 179.085938 152.058594 C 202.75 160.933594 244.203125 161.089844 241.84375 159.46875 C 241.050781 158.925781 236.71875 159.320312 239.351562 155.6875 C 240.179688 154.539062 243.039062 154.371094 242.296875 153.84375 C 238.851562 151.390625 241.117188 150.269531 245.121094 148.761719 L 284.355469 106.789062 L 204.136719 88.179688 C 203.578125 82.460938 203.671875 82.480469 203.535156 82 C 203.265625 81.058594 202.9375 81.253906 191.644531 78.976562 C 187.914062 78.222656 189.046875 81.535156 188.980469 82.078125 C 186.832031 99.277344 176.640625 85.109375 176.527344 84.996094 C 175.222656 83.734375 169.890625 85.148438 168.988281 87.664062 C 167.253906 92.503906 171.160156 97.796875 171.777344 99.082031 C 175.746094 107.351562 161.191406 99.644531 160.222656 100.527344 C 157.511719 102.988281 159.558594 103.46875 162.628906 105.390625 C 174.398438 112.757812 178.515625 118.984375 180.625 115.386719 C 183.570312 110.359375 178.433594 110.914062 177.789062 106.070312 C 176.269531 94.6875 192.941406 114.542969 199.449219 104.539062 C 204.203125 97.226562 203.09375 96.820312 204.136719 88.179688 L 284.355469 106.789062 L 250.097656 162.886719 C 255.976562 162.851562 262.933594 163.125 262.964844 162.117188 C 263.066406 159.089844 264.207031 124.582031 262.285156 124.25 C 262.152344 124.226562 230.511719 124.234375 225.074219 124.222656 C 220.566406 124.207031 218.929688 123.761719 219.113281 128.21875 C 219.140625 128.828125 219.429688 135.792969 220.359375 135.71875 C 221.046875 135.664062 232.695312 124.855469 236.707031 134.40625 C 237.613281 136.566406 236.066406 140.167969 238.253906 140.277344 C 240.578125 140.394531 259.316406 138.738281 252.394531 158.859375 C 251.816406 160.539062 249.996094 161.332031 250.097656 162.886719 L 284.355469 106.789062 L 233.226562 116.628906 C 234.378906 119 235.113281 117.183594 237.777344 117.148438 C 239.898438 117.121094 262.484375 117.210938 264.578125 117.160156 C 264.738281 117.15625 275.457031 113.234375 271.632812 113.292969 C 263.988281 113.410156 243.738281 113.238281 242.507812 113.339844 C 241.609375 113.414062 236.839844 115.800781 233.226562 116.628906 Z M 284.355469 106.789062 " fill-rule="evenodd"/>
  <path d="M 28.878906 207.132812 C 30.632812 206.902344 56.480469 206.910156 78.195312 185.140625 C 86.785156 176.535156 92.117188 169.0625 93.207031 171.164062 C 101.832031 187.808594 110.761719 190.824219 121.96875 195.242188 C 123.058594 195.671875 123.75 197.09375 113.179688 206.992188 C 111.136719 208.90625 99.675781 219.640625 83.859375 226.078125 C 49.339844 240.121094 39.121094 235.75 23.230469 235.796875 C 19.238281 235.804688 14.21875 251.078125 4.074219 244.421875 C 2.011719 243.070312 1.09375 242.011719 11.4375 214.421875 C 14.800781 205.457031 20.308594 207.757812 28.878906 207.132812 Z M 28.878906 207.132812 " fill-rule="evenodd"/>
</svg>